. 
  
http://www.torrentday.com/        :     The Hottest Private Tracker On The Net!!!


               www . TorrentDay . Com 
(((((((((((((= Enjoy No RAR releases =))))))))))))))))))))


...................................NFO:....................................

.[img]http://leetleech.org/images/32521473805789496901.png[/img]

[b]THE LAST STATION 2009 480p BRRip XviD AC3-LEGi0N

[img]http://leetleech.org/images/48874973695367351744.png[/img][b]
[color=red]General[/color]
Format: AVI
File size: 1.54 GiB
Duration: 1h 52mn
Overall bit rate: 1 958 Kbps
IMDb Rating: 7.1/10   2,684 votes
Genre: Biography | Drama
Release Date: 15 January 2010
IMDb Link: http://www.imdb.com/title/tt0824758/
Source: 720p Bluray x264-CBGB

[color=red]Video[/color]
Format: MPEG-4 Visual
Format profile: Streaming Video@L1
Format settings, BVOP: Yes
Format settings, QPel: No
Format settings, GMC: No warppoints
Format settings, Matrix: Default (H.263)
Muxing mode: Packed bitstream
Codec ID: XVID
Bit rate: 1 500 Kbps
Width: 720 pixels
Height: 304 pixels
Display aspect ratio: 2.35
Frame rate: 23.976 fps
Resolution: 24 bits
Colorimetry: 4:2:0
Scan type: Progressive
Bits/(Pixel*Frame): 0.286
Stream size: 1.18 GiB (77%)

[color=red]Audio[/color]
Format: AC-3
Bit rate mode: Constant
Bit rate: 448 Kbps
Channel(s): 6 channels
Sampling rate: 48.0 KHz
Stream size: 361 MiB (23%)

[img]http://leetleech.org/images/89524873606771859129.png[/img]
A historical drama that illustrates Russian author Leo Tolstoy's 
struggle to balance fame and wealth with his commitment to a life 
devoid of material things.

[color=red]Tagline:[/color] 
Intoxicating. Infuriating. Impossible. Love.

[img]http://leetleech.org/images/84434050717770922575.png[/img]
James McAvoy	... 	Valentin Bulgakov
Paul Giamatti	... 	Vladimir Chertkov
Helen Mirren	... 	Sofya Tolstoy
Christopher Plummer	... 	Leo Tolstoy
Kerry Condon	... 	Masha
Anne-Marie Duff	... 	Sasha Tolstoy
Patrick Kennedy	... 	Sergeyenko
John Sessions	... 	Dushan
David Masterson	... 	Reporter
Tomas Spencer	... 	Andrey Tolstoy

[color=red]GREETZ[/color]
Noir | xXTHORNXx | bigimac | LUSi |

kempas | KaN1vE | mike160 | skillz |

Lungbuster | Sheikh | dillon1369 |

FLAWL3SS | AND ALL P2P![/b]

[img]http://leetleech.org/images/95521316153253938506.png[/img]
[img]http://leetleech.org/images/57565298368371245860.png[/img]
[img]http://leetleech.org/images/02909778881445201690.png[/img]
[img]http://leetleech.org/images/34367889447101580870.png[/img]
[img]http://leetleech.org/images/42185406919622620155.png[/img]
[img]http://leetleech.org/images/02421273206941429151.png[/img]
[img]http://leetleech.org/images/12755021538703799215.png[/img]